<?xml version="1.0" encoding="utf-8"?>
<!-- Generator: Adobe Illustrator 25.0.1, SVG Export Plug-In . SVG Version: 6.00 Build 0)  -->
<svg version="1.0" id="Layer_1" xmlns="http://www.w3.org/2000/svg" xmlns:xlink="http://www.w3.org/1999/xlink" x="0px" y="0px"
	 viewBox="0 0 828 542" style="enable-background:new 0 0 828 542;" xml:space="preserve">
<style type="text/css">
	.st0{fill:#FFFFFF;}
	.st1{fill:#FF883D;}
	.st2{fill:none;}
</style>
<path class="st0" d="M527.7,332.6c-10.9,0-18.9-2.1-24.2-6.3c-4.5-3.4-7-8.7-7-14.4h21.7c1,4.2,2.8,6.6,9.8,6.6
	c7.7,0,10.9-4.2,10.9-13.7v-8.4h-0.4c-2.7,6.9-9.7,11.2-17.2,10.5c-17.9,0-27-10.2-27-30.1c-0.4-8.5,2.5-16.7,8.1-23.1
	c5-5.2,12-8.1,19.3-8c7-0.7,13.8,2.9,17.1,9.1h0.4v-7.7h21.4v55.7c0,10.2-2.5,17.5-7.7,22.1C547.3,330.1,539.2,332.6,527.7,332.6z
	 M528.4,260.8c-7,0-11.2,6-11.2,16.1c0,10.5,3.8,16.1,10.8,16.1c6,0,10.8-4.9,10.8-10.9l0,0v-8C538.8,265.7,535,260.8,528.4,260.8
	L528.4,260.8z M323.9,311.5c-7.7,0.7-15.3-1.3-21.7-5.6c-4.2-3.6-6.7-8.8-7-14.4h20c0.4,4.2,3.2,6.3,8.4,6.3c4.9,0,8-1.8,8-5.2
	c0-2.8-1.8-4.2-6.3-4.9l-10.2-1.4c-12.2-1.4-18.9-8.4-18.9-19.3c-0.1-5.6,2.2-10.9,6.3-14.7c12.1-8.4,28.1-8.8,40.6-1
	c4.2,3.5,6.6,8.6,6.6,14h-19.7c-0.1-3.6-3.1-6.4-6.6-6.3h-0.4c-5.6,0-6.7,2.5-6.7,4.9s1,4.2,6,4.9l10.9,1.4c4.8,0.2,9.4,2.1,13,5.2
	c3.5,3.4,5.3,8.2,4.9,13C352,302.8,341.1,311.6,323.9,311.5L323.9,311.5z M260.9,311.2c-20.3,0-31.9-11.9-31.9-33.3
	c-0.3-8.6,2.7-17,8.4-23.5c6.2-6.1,14.8-9.3,23.5-8.8c10.9,0,19.3,3.1,24.5,9.1c5.3,6.8,8,15.2,7.7,23.8v4.9h-41.7
	c0.7,9.1,3.5,13.3,10.2,13.3c4,0.7,7.9-1.9,8.8-6h22.1C291,303.8,280.1,311.2,260.9,311.2L260.9,311.2z M260.9,259
	c-6,0-8.8,4.2-9.5,12.6h18.9v-0.7C269.6,262.9,266.5,259,260.9,259L260.9,259z M662.5,310.9c-6.8,0.4-13.4-2.2-18.2-7
	c-4.6-5.3-7-12.2-6.7-19.3c-0.4-6.9,2-13.7,6.7-18.9c4.9-4.7,11.4-7.2,18.2-7c15.4,0,24.9,9.8,24.9,25.9S677.5,310.9,662.5,310.9z
	 M662.5,268.9c-8.1,0-9.8,8.8-9.8,16.1c0,10.9,3.5,16.1,9.8,16.1s9.8-5.6,9.8-16.1S668.8,268.9,662.5,268.9z M612.4,310.9
	c-6.8,0.4-13.4-2.2-18.2-7c-4.4-5.3-6.7-12-6.3-18.9c0-16.1,9.5-25.9,24.9-25.9c14,0,22.4,7,22.8,18.9h-14.3
	c-0.3-4.2-2.1-9.1-8.4-9.1c-8.8,0-9.8,10.1-9.8,16.1c0,10.9,3.2,16.1,9.8,16.1c4.8,0,8.7-3.8,8.8-8.6c0-0.1,0-0.1,0-0.2l0,0v-1h14
	c0,5.7-2.4,11-6.7,14.8C624,309.3,618.3,311,612.4,310.9z M377.1,310.5c-5.4,0.5-10.8-1.1-15.1-4.5c-4.2-4.4-6.4-10.4-6-16.5V230
	h21.8v17.2h13v15.4h-12.6v22.8c0,6.6,2.1,9.1,8.1,9.1c1.4,0.1,2.8-0.1,4.2-0.4v15.7C385.9,310.1,381.7,310.5,377.1,310.5z
	 M738.8,309.5h-14.7v-29.1c0.3-2.8-0.2-5.5-1.4-8c-1.4-2.1-3.8-3.2-6.3-2.8c-6,0-9.5,4.2-9.5,11.2v28.7h-14.7v-49.4h14v8.1l0,0
	c2.9-5.8,8.9-9.4,15.4-9.1c8.4,0,13.3,3.5,15.4,10.2h0.3c2.8-6.4,9.2-10.4,16.1-10.2c11.2,0,16.5,6,16.5,18.2v32.2h-14.7v-29
	c0.3-2.8-0.2-5.5-1.4-8c-1.4-2.1-3.8-3.2-6.3-2.8c-6,0-9.5,4.2-9.5,11.2L738.8,309.5L738.8,309.5z M448.2,309.5h-22.4v-62.3h21.7
	v10.1h0.4c3.9-7.4,11.9-11.9,20.3-11.2c8,0,13.7,2.1,17.2,6.3c3.6,5.4,5.2,11.8,4.5,18.2v38.9h-22.4v-35.4c0.3-3.1-0.3-6.3-1.8-9.1
	c-1.6-2.2-4.3-3.4-7-3.1c-6.6,0-10.1,4.2-10.1,12.6L448.2,309.5L448.2,309.5z M123.9,309.5h-22.4v-62.3h21.7v10.1h0.3
	c3.9-7.4,11.9-11.9,20.3-11.2c8,0,13.7,2.1,17.2,6.3c3.6,5.4,5.2,11.8,4.6,18.2v38.9h-22.4v-35.4c0.3-3.1-0.3-6.3-1.8-9.1
	c-1.6-2.2-4.3-3.4-7-3.1c-6.7,0-10.2,4.2-10.2,12.6L123.9,309.5L123.9,309.5z M583.4,309.5H568v-14.7h15.4L583.4,309.5L583.4,309.5z
	 M418.4,309.5H396v-62.3h22.4L418.4,309.5z M209.7,309.5h-23.1l-22.1-62.3H187l8,27c2.1,7.7,3.9,15.8,3.9,16.1h0.4
	c1.1-5.3,2.1-10.5,3.5-15.8l8.1-27h21.7L209.7,309.5L209.7,309.5z M93.1,309.5H70v-88.2h23.1L93.1,309.5L93.1,309.5z"/>
<path class="st1" d="M395.3,240.5l23.1-4.2v-22.8l-23.1,4.2V240.5z"/>
<rect x="48" y="195" class="st2" width="120" height="60"/>
</svg>
